<svg width="23" height="23" viewBox="0 0 23 23" fill="none" xmlns="http://www.w3.org/2000/svg">
<path fill-rule="evenodd" clip-rule="evenodd" d="M11.5 0C17.8514 0 23 5.27842 23 11.7909C23 16.9992 19.7087 21.4176 15.142 22.9781C14.559 23.0942 14.352 22.726 14.352 22.4121C14.352 22.0234 14.3658 20.7538 14.3658 19.176C14.3658 18.0766 13.9978 17.3591 13.585 16.9934C16.146 16.7013 18.837 15.7041 18.837 11.1754C18.837 9.88744 18.3908 8.83639 17.6525 8.01069C17.7721 7.71284 18.1665 6.51355 17.5398 4.88975C17.5398 4.88975 16.5761 4.57381 14.3807 6.09871C13.4619 5.83766 12.4775 5.70631 11.5 5.70171C10.5225 5.70631 9.53925 5.83766 8.62155 6.09871C6.4239 4.57381 5.4579 4.88975 5.4579 4.88975C4.83345 6.51355 5.2279 7.71284 5.34635 8.01069C4.6115 8.83639 4.16185 9.88744 4.16185 11.1754C4.16185 15.6926 6.8471 16.7051 9.40125 17.0029C9.07235 17.2973 8.7745 17.8167 8.671 18.5791C8.0155 18.8804 6.3503 19.4019 5.3245 17.5998C5.3245 17.5998 4.71615 16.4669 3.56155 16.3841C3.56155 16.3841 2.4403 16.3692 3.48335 17.1006C3.48335 17.1006 4.2366 17.4629 4.75985 18.8256C4.75985 18.8256 5.4349 20.9301 8.6342 20.2171C8.63995 21.2026 8.6503 22.1315 8.6503 22.4121C8.6503 22.7237 8.4387 23.0885 7.86485 22.9792C3.29475 21.421 0 17.0004 0 11.7909C0 5.27842 5.1497 0 11.5 0Z" fill="#FC8B23"/>
</svg>
