<svg width="26" height="26" viewBox="0 0 26 26" fill="none" xmlns="http://www.w3.org/2000/svg">
<path d="M13 25.5C11.25 25.5 9.61458 25.1719 8.09375 24.5156C6.57292 23.8594 5.25 22.9688 4.125 21.8438C3 20.7188 2.11458 19.3906 1.46875 17.8594C0.822917 16.3281 0.5 14.6875 0.5 12.9375C0.5 11.1875 0.822917 9.55729 1.46875 8.04688C2.11458 6.53646 3 5.21875 4.125 4.09375C5.25 2.96875 6.57292 2.08854 8.09375 1.45312C9.61458 0.817708 11.25 0.5 13 0.5C14.75 0.5 16.3854 0.817708 17.9062 1.45312C19.4271 2.08854 20.75 2.96875 21.875 4.09375C23 5.21875 23.8854 6.53646 24.5312 8.04688C25.1771 9.55729 25.5 11.1875 25.5 12.9375C25.5 14.6875 25.1771 16.3281 24.5312 17.8594C23.8854 19.3906 23 20.7188 21.875 21.8438C20.75 22.9688 19.4271 23.8594 17.9062 24.5156C16.3854 25.1719 14.75 25.5 13 25.5ZM13 23.6875C13.7292 22.9375 14.3385 22.0781 14.8281 21.1094C15.3177 20.1406 15.7188 18.9896 16.0312 17.6562H10C10.2917 18.9062 10.6823 20.0312 11.1719 21.0312C11.6615 22.0312 12.2708 22.9167 13 23.6875ZM10.3438 23.3125C9.82292 22.5208 9.375 21.6667 9 20.75C8.625 19.8333 8.3125 18.8021 8.0625 17.6562H3.375C4.16667 19.1354 5.08333 20.2969 6.125 21.1406C7.16667 21.9844 8.57292 22.7083 10.3438 23.3125ZM15.6875 23.2812C17.1875 22.8021 18.5365 22.0833 19.7344 21.125C20.9323 20.1667 21.8958 19.0104 22.625 17.6562H17.9688C17.6979 18.7812 17.3802 19.8021 17.0156 20.7188C16.651 21.6354 16.2083 22.4896 15.6875 23.2812ZM2.75 15.7812H7.71875C7.65625 15.2188 7.61979 14.7135 7.60938 14.2656C7.59896 13.8177 7.59375 13.375 7.59375 12.9375C7.59375 12.4167 7.60417 11.9531 7.625 11.5469C7.64583 11.1406 7.6875 10.6875 7.75 10.1875H2.75C2.60417 10.6875 2.50521 11.1354 2.45312 11.5312C2.40104 11.9271 2.375 12.3958 2.375 12.9375C2.375 13.4792 2.40104 13.9635 2.45312 14.3906C2.50521 14.8177 2.60417 15.2812 2.75 15.7812ZM9.65625 15.7812H16.375C16.4583 15.1354 16.5104 14.6094 16.5312 14.2031C16.5521 13.7969 16.5625 13.375 16.5625 12.9375C16.5625 12.5208 16.5521 12.1198 16.5312 11.7344C16.5104 11.349 16.4583 10.8333 16.375 10.1875H9.65625C9.57292 10.8333 9.52083 11.349 9.5 11.7344C9.47917 12.1198 9.46875 12.5208 9.46875 12.9375C9.46875 13.375 9.47917 13.7969 9.5 14.2031C9.52083 14.6094 9.57292 15.1354 9.65625 15.7812ZM18.25 15.7812H23.25C23.3958 15.2812 23.4948 14.8177 23.5469 14.3906C23.599 13.9635 23.625 13.4792 23.625 12.9375C23.625 12.3958 23.599 11.9271 23.5469 11.5312C23.4948 11.1354 23.3958 10.6875 23.25 10.1875H18.2812C18.3438 10.9167 18.3854 11.474 18.4062 11.8594C18.4271 12.2448 18.4375 12.6042 18.4375 12.9375C18.4375 13.3958 18.4219 13.8281 18.3906 14.2344C18.3594 14.6406 18.3125 15.1562 18.25 15.7812ZM17.9375 8.3125H22.625C21.9375 6.875 20.9948 5.67708 19.7969 4.71875C18.599 3.76042 17.2188 3.08333 15.6562 2.6875C16.1771 3.45833 16.6198 4.29167 16.9844 5.1875C17.349 6.08333 17.6667 7.125 17.9375 8.3125ZM10 8.3125H16.0625C15.8333 7.20833 15.4479 6.14062 14.9062 5.10938C14.3646 4.07812 13.7292 3.16667 13 2.375C12.3333 2.9375 11.7708 3.67708 11.3125 4.59375C10.8542 5.51042 10.4167 6.75 10 8.3125ZM3.375 8.3125H8.09375C8.32292 7.1875 8.61458 6.18229 8.96875 5.29688C9.32292 4.41146 9.77083 3.55208 10.3125 2.71875C8.75 3.11458 7.38542 3.78125 6.21875 4.71875C5.05208 5.65625 4.10417 6.85417 3.375 8.3125Z" fill="#FC8B23"/>
</svg>
