<svg width="22" height="18" viewBox="0 0 22 18" fill="none" xmlns="http://www.w3.org/2000/svg">
<path d="M7.17406 17.3812C4.78531 17.3812 2.56063 16.6809 0.6875 15.4762C1.79532 15.6108 2.91881 15.5254 3.9936 15.2251C5.06839 14.9247 6.07336 14.4153 6.95094 13.7259C6.06766 13.7097 5.21161 13.4174 4.50291 12.89C3.79422 12.3625 3.26845 11.6264 2.99938 10.785C3.25813 10.8356 3.52344 10.8618 3.79438 10.8618C4.18063 10.8618 4.55562 10.8093 4.91281 10.7156C3.95528 10.5217 3.0942 10.0028 2.47539 9.24677C1.85658 8.49077 1.51807 7.54413 1.51719 6.56716V6.51184C2.10384 6.83867 2.76033 7.02 3.43156 7.04059C2.85155 6.65415 2.37614 6.13024 2.04769 5.51554C1.71924 4.90083 1.54794 4.21442 1.54906 3.51747C1.54906 2.74497 1.76 2.01559 2.12281 1.39122C3.18527 2.69844 4.51084 3.76755 6.0134 4.52909C7.51597 5.29063 9.16193 5.72757 10.8444 5.81153C10.6336 4.90432 10.7277 3.95291 11.1123 3.10463C11.4969 2.25634 12.1504 1.5585 12.9716 1.11916C13.7929 0.67981 14.7361 0.52347 15.6551 0.674342C16.5742 0.825214 17.4179 1.27488 18.0556 1.95372C19.0028 1.76624 19.9113 1.41944 20.7425 0.928094C20.4263 1.90778 19.7658 2.73974 18.8834 3.26997C19.722 3.16986 20.5409 2.94553 21.3134 2.60435C20.7438 3.45297 20.0291 4.19461 19.2022 4.79528C19.2097 4.97622 19.2153 5.15903 19.2153 5.34184C19.2144 10.9312 14.9572 17.3822 7.17406 17.3812Z" fill="#FC8B23"/>
</svg>
