<svg width="30" height="22" viewBox="0 0 30 22" fill="none" xmlns="http://www.w3.org/2000/svg">
<path d="M19.6799 14.9029C18.2634 14.8101 17.1496 13.6382 17.1496 12.2057C17.1496 12.1579 17.1505 12.1101 17.1534 12.0622V12.0688C17.1505 12.0238 17.1487 11.9713 17.1487 11.9179C17.1487 10.4882 18.2643 9.32006 19.6724 9.23475H19.6799C21.0946 9.31162 22.2121 10.4769 22.2121 11.9038C22.2121 11.9619 22.2102 12.0191 22.2065 12.0763V12.0688C22.2093 12.1157 22.2112 12.171 22.2112 12.2263C22.2112 13.6541 21.0946 14.8213 19.6865 14.9019H19.679L19.6799 14.9029ZM10.3368 14.9029C8.92023 14.8101 7.80648 13.6382 7.80648 12.2057C7.80648 12.1579 7.80742 12.1101 7.81023 12.0622V12.0688C7.80742 12.0238 7.80555 11.9713 7.80555 11.9179C7.80555 10.4882 8.92117 9.32006 10.3293 9.23475H10.3368C11.7515 9.31162 12.869 10.4769 12.869 11.9038C12.869 11.9619 12.8671 12.0191 12.8634 12.0763V12.0688C12.8662 12.1138 12.868 12.1663 12.868 12.2197C12.868 13.6494 11.7524 14.8176 10.3443 14.9029H10.3368ZM24.7434 2.061C23.0905 1.281 21.1705 0.664121 19.1605 0.306933L19.0209 0.286309C19.0162 0.285371 19.0105 0.284434 19.0049 0.284434C18.9721 0.284434 18.944 0.302246 18.929 0.328496C18.7096 0.713809 18.4715 1.19475 18.2568 1.68787L18.2165 1.79193C17.2509 1.63725 16.1371 1.54912 15.0027 1.54912C13.8684 1.54912 12.7546 1.63725 11.668 1.80693L11.789 1.791C11.5359 1.20037 11.294 0.720371 11.0268 0.255371L11.0652 0.327559C11.0493 0.300371 11.0202 0.283496 10.9874 0.283496C10.9827 0.283496 10.9771 0.283496 10.9724 0.284434C8.82273 0.662246 6.90273 1.27818 5.10836 2.11912L5.24992 2.05912C5.23398 2.06568 5.22086 2.07693 5.21242 2.091C2.5368 5.87943 0.935547 10.5932 0.935547 15.681C0.935547 16.5313 0.980547 17.3704 1.06773 18.1972L1.0593 18.0941C1.06211 18.1213 1.07617 18.1438 1.09586 18.1597C3.10211 19.6607 5.43461 20.8701 7.9518 21.6641L8.1168 21.7091C8.1243 21.7119 8.13367 21.7129 8.14305 21.7129C8.17305 21.7129 8.1993 21.6988 8.21523 21.6772C8.7168 21.0022 9.19398 20.2372 9.60742 19.4347L9.65148 19.341C9.65711 19.3297 9.66086 19.3157 9.66086 19.3007C9.66086 19.2622 9.63648 19.2304 9.60273 19.2172H9.6018C8.7468 18.8872 8.02398 18.5357 7.33586 18.1326L7.40805 18.1719C7.38086 18.156 7.36305 18.1269 7.36305 18.0941C7.36305 18.0651 7.37711 18.0388 7.39867 18.0229C7.54586 17.9122 7.69398 17.7979 7.83461 17.6816C7.84961 17.6694 7.8693 17.6619 7.88992 17.6619C7.90305 17.6619 7.91523 17.6647 7.92555 17.6694H7.92461C9.99461 18.6641 12.4246 19.2454 14.9896 19.2454C17.5546 19.2454 19.9855 18.6641 22.1549 17.6263L22.0546 17.6694C22.0659 17.6638 22.078 17.661 22.0921 17.661C22.1127 17.661 22.1324 17.6685 22.1474 17.6807C22.288 17.7969 22.4352 17.9132 22.5843 18.0229C22.6059 18.0397 22.6199 18.066 22.6199 18.0951C22.6199 18.1279 22.6021 18.156 22.5768 18.1719C21.9571 18.5422 21.2343 18.8929 20.4815 19.1826L20.383 19.2163C20.3493 19.2294 20.3249 19.2622 20.3249 19.2997C20.3249 19.3147 20.3287 19.3288 20.3352 19.341C20.8049 20.241 21.2812 21.0041 21.808 21.7288L21.7705 21.6754C21.7865 21.6979 21.8137 21.7129 21.8427 21.7129C21.8521 21.7129 21.8615 21.711 21.8699 21.7091C24.5559 20.8729 26.8921 19.6635 28.9621 18.1166L28.9012 18.1607C28.9218 18.1457 28.9349 18.1222 28.9377 18.096C29.0193 17.361 29.0652 16.5079 29.0652 15.6444C29.0652 10.5679 27.4602 5.86631 24.7312 2.01881L24.7799 2.09193C24.7724 2.07693 24.7593 2.06475 24.7443 2.05818L24.7434 2.061Z" fill="#FC8B23"/>
</svg>
