<svg width="193" height="40" viewBox="0 0 193 40" fill="none" xmlns="http://www.w3.org/2000/svg">
<path fill-rule="evenodd" clip-rule="evenodd" d="M175.274 25.0159L172.069 27.7241L171.162 27.848L169.134 20.8027L162 18.4403L183.964 10L185 10.0234L181.539 29L175.274 25.0159ZM180.768 13.5659L170.704 19.6484L171.862 24.6326L172.18 24.5602L173.39 20.7139L181.433 13.6453L180.768 13.5659Z" fill="#FC8B23"/>
<g clip-path="url(#clip0_676_521)">
<path fill-rule="evenodd" clip-rule="evenodd" d="M11.5 9C17.8514 9 23 14.2784 23 20.7909C23 25.9992 19.7087 30.4176 15.142 31.9781C14.559 32.0943 14.352 31.726 14.352 31.4121C14.352 31.0234 14.3658 29.7538 14.3658 28.176C14.3658 27.0766 13.9978 26.3591 13.585 25.9934C16.146 25.7013 18.837 24.7041 18.837 20.1754C18.837 18.8874 18.3908 17.8364 17.6525 17.0107C17.7721 16.7128 18.1665 15.5135 17.5398 13.8897C17.5398 13.8897 16.5761 13.5738 14.3807 15.0987C13.4619 14.8377 12.4775 14.7063 11.5 14.7017C10.5225 14.7063 9.53925 14.8377 8.62155 15.0987C6.4239 13.5738 5.4579 13.8897 5.4579 13.8897C4.83345 15.5135 5.2279 16.7128 5.34635 17.0107C4.6115 17.8364 4.16185 18.8874 4.16185 20.1754C4.16185 24.6926 6.8471 25.7051 9.40125 26.0029C9.07235 26.2973 8.7745 26.8167 8.671 27.5791C8.0155 27.8804 6.3503 28.4019 5.3245 26.5998C5.3245 26.5998 4.71615 25.4669 3.56155 25.3841C3.56155 25.3841 2.4403 25.3692 3.48335 26.1006C3.48335 26.1006 4.2366 26.4629 4.75985 27.8256C4.75985 27.8256 5.4349 29.9301 8.6342 29.2171C8.63995 30.2026 8.6503 31.1315 8.6503 31.4121C8.6503 31.7237 8.4387 32.0885 7.86485 31.9792C3.29475 30.421 0 26.0004 0 20.7909C0 14.2784 5.1497 9 11.5 9Z" fill="#FC8B23"/>
</g>
<path d="M132.68 23.9029C131.263 23.8101 130.15 22.6382 130.15 21.2057C130.15 21.1579 130.151 21.1101 130.153 21.0622V21.0688C130.151 21.0238 130.149 20.9713 130.149 20.9179C130.149 19.4882 131.264 18.3201 132.672 18.2347H132.68C134.095 18.3116 135.212 19.4769 135.212 20.9038C135.212 20.9619 135.21 21.0191 135.206 21.0763V21.0688C135.209 21.1157 135.211 21.171 135.211 21.2263C135.211 22.6541 134.095 23.8213 132.686 23.9019H132.679L132.68 23.9029ZM123.337 23.9029C121.92 23.8101 120.806 22.6382 120.806 21.2057C120.806 21.1579 120.807 21.1101 120.81 21.0622V21.0688C120.807 21.0238 120.806 20.9713 120.806 20.9179C120.806 19.4882 121.921 18.3201 123.329 18.2347H123.337C124.751 18.3116 125.869 19.4769 125.869 20.9038C125.869 20.9619 125.867 21.0191 125.863 21.0763V21.0688C125.866 21.1138 125.868 21.1663 125.868 21.2197C125.868 22.6494 124.752 23.8176 123.344 23.9029H123.337ZM137.743 11.061C136.091 10.281 134.171 9.66412 132.161 9.30693L132.021 9.28631C132.016 9.28537 132.011 9.28443 132.005 9.28443C131.972 9.28443 131.944 9.30225 131.929 9.3285C131.71 9.71381 131.471 10.1947 131.257 10.6879L131.216 10.7919C130.251 10.6372 129.137 10.5491 128.003 10.5491C126.868 10.5491 125.755 10.6372 124.668 10.8069L124.789 10.791C124.536 10.2004 124.294 9.72037 124.027 9.25537L124.065 9.32756C124.049 9.30037 124.02 9.2835 123.987 9.2835C123.983 9.2835 123.977 9.2835 123.972 9.28443C121.823 9.66225 119.903 10.2782 118.108 11.1191L118.25 11.0591C118.234 11.0657 118.221 11.0769 118.212 11.091C115.537 14.8794 113.936 19.5932 113.936 24.681C113.936 25.5313 113.981 26.3704 114.068 27.1972L114.059 27.0941C114.062 27.1213 114.076 27.1438 114.096 27.1597C116.102 28.6607 118.435 29.8701 120.952 30.6641L121.117 30.7091C121.124 30.7119 121.134 30.7129 121.143 30.7129C121.173 30.7129 121.199 30.6988 121.215 30.6772C121.717 30.0022 122.194 29.2372 122.607 28.4347L122.651 28.341C122.657 28.3297 122.661 28.3157 122.661 28.3007C122.661 28.2622 122.636 28.2304 122.603 28.2172H122.602C121.747 27.8872 121.024 27.5357 120.336 27.1326L120.408 27.1719C120.381 27.156 120.363 27.1269 120.363 27.0941C120.363 27.0651 120.377 27.0388 120.399 27.0229C120.546 26.9122 120.694 26.7979 120.835 26.6816C120.85 26.6694 120.869 26.6619 120.89 26.6619C120.903 26.6619 120.915 26.6647 120.926 26.6694H120.925C122.995 27.6641 125.425 28.2454 127.99 28.2454C130.555 28.2454 132.986 27.6641 135.155 26.6263L135.055 26.6694C135.066 26.6638 135.078 26.661 135.092 26.661C135.113 26.661 135.132 26.6685 135.147 26.6807C135.288 26.7969 135.435 26.9132 135.584 27.0229C135.606 27.0397 135.62 27.066 135.62 27.0951C135.62 27.1279 135.602 27.156 135.577 27.1719C134.957 27.5422 134.234 27.8929 133.481 28.1826L133.383 28.2163C133.349 28.2294 133.325 28.2622 133.325 28.2997C133.325 28.3147 133.329 28.3288 133.335 28.341C133.805 29.241 134.281 30.0041 134.808 30.7288L134.771 30.6754C134.786 30.6979 134.814 30.7129 134.843 30.7129C134.852 30.7129 134.861 30.711 134.87 30.7091C137.556 29.8729 139.892 28.6635 141.962 27.1166L141.901 27.1607C141.922 27.1457 141.935 27.1222 141.938 27.096C142.019 26.361 142.065 25.5079 142.065 24.6444C142.065 19.5679 140.46 14.8663 137.731 11.0188L137.78 11.0919C137.772 11.0769 137.759 11.0647 137.744 11.0582L137.743 11.061Z" fill="#FC8B23"/>
<path d="M44.1741 28.3812C41.7853 28.3812 39.5606 27.6809 37.6875 26.4762C38.7953 26.6108 39.9188 26.5254 40.9936 26.2251C42.0684 25.9247 43.0734 25.4153 43.9509 24.7259C43.0677 24.7097 42.2116 24.4174 41.5029 23.89C40.7942 23.3625 40.2684 22.6264 39.9994 21.785C40.2581 21.8356 40.5234 21.8618 40.7944 21.8618C41.1806 21.8618 41.5556 21.8093 41.9128 21.7156C40.9553 21.5217 40.0942 21.0028 39.4754 20.2468C38.8566 19.4908 38.5181 18.5441 38.5172 17.5672V17.5118C39.1038 17.8387 39.7603 18.02 40.4316 18.0406C39.8516 17.6542 39.3761 17.1302 39.0477 16.5155C38.7192 15.9008 38.5479 15.2144 38.5491 14.5175C38.5491 13.745 38.76 13.0156 39.1228 12.3912C40.1853 13.6984 41.5108 14.7675 43.0134 15.5291C44.516 16.2906 46.1619 16.7276 47.8444 16.8115C47.6336 15.9043 47.7277 14.9529 48.1123 14.1046C48.4969 13.2563 49.1504 12.5585 49.9716 12.1192C50.7929 11.6798 51.7361 11.5235 52.6551 11.6743C53.5742 11.8252 54.4179 12.2749 55.0556 12.9537C56.0028 12.7662 56.9113 12.4194 57.7425 11.9281C57.4263 12.9078 56.7658 13.7397 55.8834 14.27C56.722 14.1699 57.5409 13.9455 58.3134 13.6043C57.7438 14.453 57.0291 15.1946 56.2022 15.7953C56.2097 15.9762 56.2153 16.159 56.2153 16.3418C56.2144 21.9312 51.9572 28.3822 44.1741 28.3812Z" fill="#FC8B23"/>
<path d="M88 32.5C86.25 32.5 84.6146 32.1719 83.0938 31.5156C81.5729 30.8594 80.25 29.9688 79.125 28.8438C78 27.7188 77.1146 26.3906 76.4688 24.8594C75.8229 23.3281 75.5 21.6875 75.5 19.9375C75.5 18.1875 75.8229 16.5573 76.4688 15.0469C77.1146 13.5365 78 12.2188 79.125 11.0938C80.25 9.96875 81.5729 9.08854 83.0938 8.45312C84.6146 7.81771 86.25 7.5 88 7.5C89.75 7.5 91.3854 7.81771 92.9062 8.45312C94.4271 9.08854 95.75 9.96875 96.875 11.0938C98 12.2188 98.8854 13.5365 99.5312 15.0469C100.177 16.5573 100.5 18.1875 100.5 19.9375C100.5 21.6875 100.177 23.3281 99.5312 24.8594C98.8854 26.3906 98 27.7188 96.875 28.8438C95.75 29.9688 94.4271 30.8594 92.9062 31.5156C91.3854 32.1719 89.75 32.5 88 32.5ZM88 30.6875C88.7292 29.9375 89.3385 29.0781 89.8281 28.1094C90.3177 27.1406 90.7188 25.9896 91.0312 24.6562H85C85.2917 25.9062 85.6823 27.0312 86.1719 28.0312C86.6615 29.0312 87.2708 29.9167 88 30.6875ZM85.3438 30.3125C84.8229 29.5208 84.375 28.6667 84 27.75C83.625 26.8333 83.3125 25.8021 83.0625 24.6562H78.375C79.1667 26.1354 80.0833 27.2969 81.125 28.1406C82.1667 28.9844 83.5729 29.7083 85.3438 30.3125ZM90.6875 30.2812C92.1875 29.8021 93.5365 29.0833 94.7344 28.125C95.9323 27.1667 96.8958 26.0104 97.625 24.6562H92.9688C92.6979 25.7812 92.3802 26.8021 92.0156 27.7188C91.651 28.6354 91.2083 29.4896 90.6875 30.2812ZM77.75 22.7812H82.7188C82.6562 22.2188 82.6198 21.7135 82.6094 21.2656C82.599 20.8177 82.5938 20.375 82.5938 19.9375C82.5938 19.4167 82.6042 18.9531 82.625 18.5469C82.6458 18.1406 82.6875 17.6875 82.75 17.1875H77.75C77.6042 17.6875 77.5052 18.1354 77.4531 18.5312C77.401 18.9271 77.375 19.3958 77.375 19.9375C77.375 20.4792 77.401 20.9635 77.4531 21.3906C77.5052 21.8177 77.6042 22.2812 77.75 22.7812ZM84.6562 22.7812H91.375C91.4583 22.1354 91.5104 21.6094 91.5312 21.2031C91.5521 20.7969 91.5625 20.375 91.5625 19.9375C91.5625 19.5208 91.5521 19.1198 91.5312 18.7344C91.5104 18.349 91.4583 17.8333 91.375 17.1875H84.6562C84.5729 17.8333 84.5208 18.349 84.5 18.7344C84.4792 19.1198 84.4688 19.5208 84.4688 19.9375C84.4688 20.375 84.4792 20.7969 84.5 21.2031C84.5208 21.6094 84.5729 22.1354 84.6562 22.7812ZM93.25 22.7812H98.25C98.3958 22.2812 98.4948 21.8177 98.5469 21.3906C98.599 20.9635 98.625 20.4792 98.625 19.9375C98.625 19.3958 98.599 18.9271 98.5469 18.5312C98.4948 18.1354 98.3958 17.6875 98.25 17.1875H93.2812C93.3438 17.9167 93.3854 18.474 93.4062 18.8594C93.4271 19.2448 93.4375 19.6042 93.4375 19.9375C93.4375 20.3958 93.4219 20.8281 93.3906 21.2344C93.3594 21.6406 93.3125 22.1562 93.25 22.7812ZM92.9375 15.3125H97.625C96.9375 13.875 95.9948 12.6771 94.7969 11.7188C93.599 10.7604 92.2188 10.0833 90.6562 9.6875C91.1771 10.4583 91.6198 11.2917 91.9844 12.1875C92.349 13.0833 92.6667 14.125 92.9375 15.3125ZM85 15.3125H91.0625C90.8333 14.2083 90.4479 13.1406 89.9062 12.1094C89.3646 11.0781 88.7292 10.1667 88 9.375C87.3333 9.9375 86.7708 10.6771 86.3125 11.5938C85.8542 12.5104 85.4167 13.75 85 15.3125ZM78.375 15.3125H83.0938C83.3229 14.1875 83.6146 13.1823 83.9688 12.2969C84.3229 11.4115 84.7708 10.5521 85.3125 9.71875C83.75 10.1146 82.3854 10.7812 81.2188 11.7188C80.0521 12.6562 79.1042 13.8542 78.375 15.3125Z" fill="#FC8B23"/>
<defs>
<clipPath id="clip0_676_521">
<rect width="23" height="23" fill="white" transform="translate(0 9)"/>
</clipPath>
</defs>
</svg>
